# Blender 3.5.0
# www.blender.org
mtllib AL3_Enemy.mtl
o 立方体
v -1.000000 -1.000000 1.000000
v -1.000000 1.000000 1.000000
v -1.000000 -1.000000 -0.976373
v -1.000000 1.000000 -0.984249
v 1.000000 -1.000000 1.000000
v 1.000000 1.000000 1.000000
v 1.000000 -1.000000 -0.976373
v 1.000000 1.000000 -0.984249
v 1.000000 0.000000 -0.030493
v -1.000000 0.000000 -0.030492
vn -1.0000 -0.0000 -0.0000
vn 1.0000 -0.0000 -0.0000
vn -0.0000 -0.7176 0.6964
vn -0.0000 -1.0000 -0.0000
vn -0.0000 1.0000 -0.0000
vn -0.0000 -0.0039 -1.0000
vn -0.0000 0.7176 0.6964
vt 0.375000 0.000000
vt 0.375000 1.000000
vt 0.125000 0.750000
vt 0.625000 0.000000
vt 0.625000 1.000000
vt 0.875000 0.750000
vt 0.125000 0.500000
vt 0.375000 0.250000
vt 0.625000 0.250000
vt 0.875000 0.500000
vt 0.375000 0.750000
vt 0.625000 0.750000
vt 0.375000 0.500000
vt 0.625000 0.500000
vt 0.500000 0.750000
vt 0.500000 0.000000
vt 0.500000 1.000000
s 0
usemtl マテリアル
f 10/16/1 4/9/1 3/8/1
f 7/13/2 8/14/2 9/15/2
f 9/15/3 2/5/3 10/17/3
f 7/13/4 1/3/4 3/7/4
f 4/10/5 6/12/5 8/14/5
f 4/10/6 7/13/6 3/7/6
f 3/8/1 1/1/1 10/16/1
f 10/16/1 2/4/1 4/9/1
f 8/14/2 6/12/2 9/15/2
f 9/15/2 5/11/2 7/13/2
f 1/2/7 5/11/7 9/15/7
f 9/15/3 6/12/3 2/5/3
f 10/17/7 1/2/7 9/15/7
f 7/13/4 5/11/4 1/3/4
f 4/10/5 2/6/5 6/12/5
f 4/10/6 8/14/6 7/13/6
