# Blender 3.5.0
# www.blender.org
mtllib Goal.mtl
o Cube
v -0.163372 1.000000 0.412347
v -1.000000 -1.000000 1.000000
v -0.163372 1.000000 -0.412347
v -1.000000 -1.000000 -1.000000
v 0.267329 1.000000 0.422341
v 1.000000 -1.000000 1.000000
v 0.267329 1.000000 -0.422341
v 1.000000 -1.000000 -1.000000
vn -0.0000 1.0000 -0.0000
vn -0.0000 0.2819 -0.9594
vn 0.9390 0.3440 -0.0000
vn -0.0000 -1.0000 -0.0000
vn -0.9225 0.3859 -0.0000
vn -0.0000 0.2819 0.9594
vn -0.0223 0.2699 -0.9626
vn -0.0223 0.2699 0.9626
vt 0.625000 0.500000
vt 0.375000 0.500000
vt 0.625000 0.750000
vt 0.375000 0.750000
vt 0.875000 0.500000
vt 0.625000 0.250000
vt 0.125000 0.500000
vt 0.375000 0.250000
vt 0.875000 0.750000
vt 0.625000 1.000000
vt 0.625000 0.000000
vt 0.375000 0.000000
vt 0.375000 1.000000
vt 0.125000 0.750000
s 0
usemtl Material
f 5/5/1 3/3/1 1/1/1
f 3/3/2 8/13/2 4/4/2
f 7/11/3 6/8/3 8/12/3
f 2/2/4 8/14/4 6/7/4
f 1/1/5 4/4/5 2/2/5
f 6/8/6 1/1/6 2/2/6
f 5/5/1 7/9/1 3/3/1
f 3/3/7 7/10/7 8/13/7
f 7/11/3 5/6/3 6/8/3
f 2/2/4 4/4/4 8/14/4
f 1/1/5 3/3/5 4/4/5
f 6/8/8 5/6/8 1/1/8
