# Blender 3.5.0
# www.blender.org
mtllib AL3_Player.mtl
o 立方体
v 1.000000 -1.000000 -1.000000
v 1.000000 1.000000 -1.000000
v 1.000000 -1.000000 0.976373
v 1.000000 1.000000 -0.023825
v -1.000000 -1.000000 -1.000000
v -1.000000 1.000000 -1.000000
v -1.000000 -1.000000 0.976373
v -1.000000 1.000000 -0.023825
v 0.000000 0.000000 0.986412
vn 1.0000 -0.0000 -0.0000
vn -0.4151 0.4069 0.8137
vn -1.0000 -0.0000 -0.0000
vn -0.0000 -0.0000 -1.0000
vn -0.0000 -1.0000 -0.0000
vn -0.0000 1.0000 -0.0000
vn -0.0000 -0.0100 0.9999
vn -0.0000 0.7107 0.7035
vn 0.4151 0.4069 0.8137
vt 0.375000 0.000000
vt 0.375000 1.000000
vt 0.125000 0.750000
vt 0.625000 0.000000
vt 0.625000 1.000000
vt 0.875000 0.750000
vt 0.125000 0.500000
vt 0.375000 0.250000
vt 0.625000 0.250000
vt 0.875000 0.500000
vt 0.375000 0.750000
vt 0.625000 0.750000
vt 0.375000 0.500000
vt 0.625000 0.500000
vt 0.625000 0.500000
vt 0.375000 0.500000
vt 0.875000 0.500000
vt 0.375000 0.250000
s 0
usemtl マテリアル
f 1/1/1 4/9/1 3/8/1
f 8/14/2 7/13/2 9/15/2
f 8/14/3 5/11/3 7/13/3
f 6/12/4 1/2/4 5/11/4
f 7/13/5 1/3/5 3/7/5
f 4/10/6 6/12/6 8/14/6
f 7/13/7 3/7/7 9/16/7
f 4/10/8 8/14/8 9/17/8
f 3/8/9 4/9/9 9/18/9
f 1/1/1 2/4/1 4/9/1
f 8/14/3 6/12/3 5/11/3
f 6/12/4 2/5/4 1/2/4
f 7/13/5 5/11/5 1/3/5
f 4/10/6 2/6/6 6/12/6
